<?xml version="1.0" encoding="UTF-8" standalone="no"?>
<svg
   id="Camada_1"
   data-name="Camada 1"
   viewBox="0 0 396.25025 366.32397"
   version="1.1"
   sodipodi:docname="logo-barra.svg"
   width="396.25024"
   height="366.32397"
   inkscape:version="1.1 (c68e22c387, 2021-05-23)"
   xmlns:inkscape="http://www.inkscape.org/namespaces/inkscape"
   xmlns:sodipodi="http://sodipodi.sourceforge.net/DTD/sodipodi-0.dtd"
   xmlns="http://www.w3.org/2000/svg"
   xmlns:svg="http://www.w3.org/2000/svg">
  <sodipodi:namedview
     id="namedview82"
     pagecolor="#ffffff"
     bordercolor="#666666"
     borderopacity="1.0"
     inkscape:pageshadow="2"
     inkscape:pageopacity="0.0"
     inkscape:pagecheckerboard="0"
     showgrid="false"
     inkscape:zoom="0.98546649"
     inkscape:cx="180.11774"
     inkscape:cy="183.16199"
     inkscape:window-width="1366"
     inkscape:window-height="705"
     inkscape:window-x="-8"
     inkscape:window-y="-8"
     inkscape:window-maximized="1"
     inkscape:current-layer="Camada_1" />
  <defs
     id="defs4">
    <style
       id="style2">
      .cls-1 {
        fill: #f3842d;
      }

      .cls-2 {
        fill: #e8e3c6;
      }

      .cls-3 {
        fill: #e8e2c5;
      }

      .cls-4 {
        fill: #fff;
      }
    </style>
  </defs>
  <rect
     style="fill:#000000;stroke-width:1.12436"
     id="rect464"
     width="396.25024"
     height="366.32397"
     x="0"
     y="0" />
  <g
     id="Camada_1-2"
     data-name="Camada 1-2"
     transform="translate(98.929138,57.840586)">
    <g
       id="Camada_2"
       data-name="Camada 2">
      <path
         class="cls-1"
         d="m 189.7,86.4 c -0.1,-0.2 -0.2,-0.5 -0.3,-0.7 -0.1,-0.4 -0.2,-0.9 -0.3,-1.3 0,-0.1 -0.1,-0.2 -0.1,-0.3 l -0.6,-1.4 -2,-5 -23.7,-59.8 -6.1,-13.2 c -0.1,-0.2 -0.3,-0.4 -0.4,-0.6 l -2.8,-2.9 -1.6,-0.9 h -0.1 L 150.8,0 h -3.1 a 19.09685,19.09685 0 0 0 -5.8,1 2.9947,2.9947 0 0 1 -1,0.4 c -0.2,0.1 -0.3,0.2 -0.5,0.3 A 1.3805,1.3805 0 0 1 140,2 L 92,49 41,1 A 3.5064,3.5064 0 0 1 39.6,0.4 C 37.1,0 30.8,-0.6 26.9,3.5 A 8.94441,8.94441 0 0 0 25,6.6 L 20.5,19.6 1.1,83.7 0,86.6 v 5.1 l 1.4,2.5 7.5,6.6 15.9,13.3 18.4,16.1 17.5,14.7 a 45.08371,45.08371 0 0 1 5.1,-4.7 46.64528,46.64528 0 0 1 17.6,-8.6 47.58788,47.58788 0 0 1 30,2.6 c 3.6,2.1 7.3,4.1 10.9,6.2 l 3.6,2.8 47.4,-37.7 13.1,-10.9 1.5,-2.4 v -5 c -0.1,-0.3 -0.1,-0.5 -0.2,-0.8 z"
         transform="translate(0,4e-5)"
         id="path6" />
      <path
         class="cls-2"
         d="M 85,166.6 67.6,150.8 a 34.3282,34.3282 0 0 1 17.5,-9.7 39.59457,39.59457 0 0 1 10.3,-1 37.12457,37.12457 0 0 1 8.8,1 45.49632,45.49632 0 0 1 9.3,3.5 67.1355,67.1355 0 0 1 6.8,4 l -13.2,10.9 -7.9,7.1 A 6.35544,6.35544 0 0 1 97,168 c -4.8,2.2 -9.9,-0.2 -11.1,-0.8"
         transform="translate(0,4e-5)"
         id="path8" />
      <path
         class="cls-2"
         d="m 37.9,138 c -0.1,9.3 -0.2,18.5 -0.3,27.8 l 18.2,-12.1 z"
         transform="translate(0,4e-5)"
         id="path10" />
      <polygon
         class="cls-2"
         points="135.2,149.9 160.9,149.9 160.9,129.4 "
         id="polygon12" />
      <path
         class="cls-3"
         d="m 159.3,161.3 h 45.8 v 17.2 a 48.49935,48.49935 0 0 1 -2.4,14.1 65.38351,65.38351 0 0 1 -3.4,8.7 70.5629,70.5629 0 0 1 -5.2,9.8 62.69278,62.69278 0 0 1 -7.5,9.5 79.29408,79.29408 0 0 1 -7.1,7.1 101.6259,101.6259 0 0 1 -9.8,7.5 74.05525,74.05525 0 0 1 -15.2,7.5 c -0.8,0.3 -10.1,3.9 -10.6,2.9 -0.2,-0.4 1,-1.3 2,-2 l 12,-7.8 a 2.94,2.94 0 0 0 1,-1.2 c 0.7,-1.8 -0.8,-4.5 -3.8,-6.6 l -21.6,-13.4 5.9,-3.8 6.9,-4.1 5.4,-3.1 5.4,-3 a 4.071,4.071 0 0 0 1.4,-1.2 c 1.1,-1.6 0.9,-4 -0.5,-6.2 l -7,-4.6 -7.9,-4.8 -8.2,-5.6 0.1,-1.2 17.2,-10 6,-3.2 z"
         transform="translate(0,4e-5)"
         id="path14" />
      <path
         class="cls-1"
         d="m 121.4,210.7 c 3.3,-2.2 6.8,-4.3 10.3,-6.2 l 9.1,-5.4 4.2,-2.5 v -1 l -19,-11.8 -3.1,-2 a 6.10028,6.10028 0 0 1 -1.6,-1.2 c -0.3,-0.4 -0.6,-0.9 -0.9,-1.3 a 5.02,5.02 0 0 1 -0.2,-3.8 5.66947,5.66947 0 0 1 0.8,-1.3 4.52449,4.52449 0 0 1 2.5,-1.8 l 19.3,-11.3 v -0.9 h -22.2 c -0.9,0.7 -2.4,1.8 -4.2,3.3 -5.6,4.7 -7.1,6.6 -11.6,9.9 -2.8,2 -4.3,3 -6.6,3.8 -2.6,0.8 -4.9,0.6 -9,0.3 a 12.5746,12.5746 0 0 1 -3.3,-0.5 21.35489,21.35489 0 0 1 -4,-2 c -1.1,-0.6 -2,-1.3 -2.9,-1.8 l -7.7,-7 -4.6,-4.2 -3,-0.1 c -0.9,0.3 -2.2,0.8 -3.6,1.4 a 48.22764,48.22764 0 0 0 -8.8,4.4 37.243,37.243 0 0 0 -7.5,6.8 52.45045,52.45045 0 0 0 -5.9,8.1 34.73367,34.73367 0 0 0 -3.9,8.8 42.30733,42.30733 0 0 0 -1.1,6.2 46.979,46.979 0 0 0 -0.1,13.5 46.07984,46.07984 0 0 0 1.9,7.3 41.31086,41.31086 0 0 0 7.3,12.3 47.72022,47.72022 0 0 0 8.2,8 39.70925,39.70925 0 0 0 9,5 35.44626,35.44626 0 0 0 8.5,2.2 l 16,0.1 h 37.7 l 22.2,-12.9 v -1.4 l -9.3,-5.8 -11.9,-7.6 a 4.37637,4.37637 0 0 1 -2.95066,-5.44049 q 0.0238,-0.0802 0.0507,-0.15951 v -0.1 c 0.1,-0.2 0.1,-0.4 0.2,-0.5 0.59999,-0.4 1.09999,-1 1.69999,-1.4 z"
         transform="translate(0,4e-5)"
         id="path16" />
    </g>
  </g>
</svg>
