<svg id="Camada_1" data-name="Camada 1" xmlns="http://www.w3.org/2000/svg" viewBox="0 0 1170.00428 246">
  <defs>
    <style>
      .cls-1 {
        fill: #f3842d;
      }

      .cls-2 {
        fill: #e8e3c6;
      }

      .cls-3 {
        fill: #e8e2c5;
      }

      .cls-4 {
        fill: #fff;
      }
    </style>
  </defs>
  <g id="Camada_1-2" data-name="Camada 1-2">
    <g id="Camada_2" data-name="Camada 2">
      <path class="cls-1" d="M189.7,86.4c-.1-.2-.2-.5-.3-.7-.1-.4-.2-.9-.3-1.3,0-.1-.1-.2-.1-.3l-.6-1.4-2-5L162.7,17.9,156.6,4.7c-.1-.2-.3-.4-.4-.6l-2.8-2.9L151.8.3h-.1l-.9-.3h-3.1a19.09685,19.09685,0,0,0-5.8,1,2.9947,2.9947,0,0,1-1,.4c-.2.1-.3.2-.5.3a1.3805,1.3805,0,0,1-.4.3L92,49,41,1A3.5064,3.5064,0,0,1,39.6.4c-2.5-.4-8.8-1-12.7,3.1A8.94441,8.94441,0,0,0,25,6.6l-4.5,13L1.1,83.7,0,86.6v5.1l1.4,2.5,7.5,6.6,15.9,13.3,18.4,16.1,17.5,14.7a45.08371,45.08371,0,0,1,5.1-4.7,46.64528,46.64528,0,0,1,17.6-8.6,47.58788,47.58788,0,0,1,30,2.6c3.6,2.1,7.3,4.1,10.9,6.2l3.6,2.8,47.4-37.7,13.1-10.9,1.5-2.4v-5C189.8,86.9,189.8,86.7,189.7,86.4Z" transform="translate(0 0.00004)"/>
      <path class="cls-2" d="M85,166.6,67.6,150.8a34.3282,34.3282,0,0,1,17.5-9.7,39.59457,39.59457,0,0,1,10.3-1,37.12457,37.12457,0,0,1,8.8,1,45.49632,45.49632,0,0,1,9.3,3.5,67.1355,67.1355,0,0,1,6.8,4l-13.2,10.9-7.9,7.1A6.35544,6.35544,0,0,1,97,168c-4.8,2.2-9.9-.2-11.1-.8" transform="translate(0 0.00004)"/>
      <path class="cls-2" d="M37.9,138c-.1,9.3-.2,18.5-.3,27.8l18.2-12.1Z" transform="translate(0 0.00004)"/>
      <polygon class="cls-2" points="160.9 149.9 160.9 129.4 135.2 149.9 160.9 149.9"/>
      <path class="cls-3" d="M159.3,161.3h45.8v17.2a48.49935,48.49935,0,0,1-2.4,14.1,65.38351,65.38351,0,0,1-3.4,8.7,70.5629,70.5629,0,0,1-5.2,9.8,62.69278,62.69278,0,0,1-7.5,9.5,79.29408,79.29408,0,0,1-7.1,7.1,101.6259,101.6259,0,0,1-9.8,7.5,74.05525,74.05525,0,0,1-15.2,7.5c-.8.3-10.1,3.9-10.6,2.9-.2-.4,1-1.3,2-2l12-7.8a2.94,2.94,0,0,0,1-1.2c.7-1.8-.8-4.5-3.8-6.6l-21.6-13.4,5.9-3.8,6.9-4.1,5.4-3.1,5.4-3a4.071,4.071,0,0,0,1.4-1.2c1.1-1.6.9-4-.5-6.2l-7-4.6-7.9-4.8-8.2-5.6.1-1.2,17.2-10,6-3.2Z" transform="translate(0 0.00004)"/>
      <path class="cls-1" d="M121.4,210.7c3.3-2.2,6.8-4.3,10.3-6.2l9.1-5.4,4.2-2.5v-1l-19-11.8-3.1-2a6.10028,6.10028,0,0,1-1.6-1.2c-.3-.4-.6-.9-.9-1.3a5.02,5.02,0,0,1-.2-3.8,5.66947,5.66947,0,0,1,.8-1.3,4.52449,4.52449,0,0,1,2.5-1.8l19.3-11.3v-.9H120.6c-.9.7-2.4,1.8-4.2,3.3-5.6,4.7-7.1,6.6-11.6,9.9-2.8,2-4.3,3-6.6,3.8-2.6.8-4.9.6-9,.3a12.5746,12.5746,0,0,1-3.3-.5,21.35489,21.35489,0,0,1-4-2c-1.1-.6-2-1.3-2.9-1.8l-7.7-7L66.7,162l-3-.1c-.9.3-2.2.8-3.6,1.4a48.22764,48.22764,0,0,0-8.8,4.4,37.243,37.243,0,0,0-7.5,6.8,52.45045,52.45045,0,0,0-5.9,8.1,34.73367,34.73367,0,0,0-3.9,8.8,42.30733,42.30733,0,0,0-1.1,6.2,46.979,46.979,0,0,0-.1,13.5,46.07984,46.07984,0,0,0,1.9,7.3A41.31086,41.31086,0,0,0,42,230.7a47.72022,47.72022,0,0,0,8.2,8,39.70925,39.70925,0,0,0,9,5,35.44626,35.44626,0,0,0,8.5,2.2l16,.1h37.7l22.2-12.9v-1.4l-9.3-5.8-11.9-7.6a4.37637,4.37637,0,0,1-2.95066-5.44049q.02382-.08023.05067-.15951v-.1c.1-.2.1-.4.2-.5C120.3,211.7,120.8,211.1,121.4,210.7Z" transform="translate(0 0.00004)"/>
    </g>
  </g>
  <g id="Camada_2-2" data-name="Camada 2-2">
    <g>
      <path class="cls-4" d="M290.1,130.7,271.0398,59.36858a4.15933,4.15933,0,0,0-3.59034-3.06351l-2.11815-.21911A4.15932,4.15932,0,0,1,261.6,51.94872V49.55927A4.15931,4.15931,0,0,1,265.7593,45.4h25.98137A4.15931,4.15931,0,0,1,295.9,49.55927v2.52779a4.15931,4.15931,0,0,1-3.57736,4.11839l-1.08825.15378a4.15932,4.15932,0,0,0-3.46163,5.09275L296.7,98.5l1.8,7.6h.4l2.2-7.6,15.97769-50.20211A4.15932,4.15932,0,0,1,321.04107,45.4h6.52427a4.15932,4.15932,0,0,1,3.96084,2.88981L348.1,100l2.1,6.7h.4l1.8-6.7,9.31179-38.41115a4.15932,4.15932,0,0,0-3.48974-5.10239l-1.51525-.20308a4.15931,4.15931,0,0,1-3.60682-4.12245V49.65927A4.15931,4.15931,0,0,1,357.25924,45.5h25.38139a4.15931,4.15931,0,0,1,4.15931,4.15931v2.41792a4.15932,4.15932,0,0,1-3.7,4.13388l-1.58244.17582a4.15931,4.15931,0,0,0-3.5563,3.05L359.53,127.72449A4.15929,4.15929,0,0,1,355.51441,130.8h-9.59174a4.15929,4.15929,0,0,1-3.95605-2.875L326.7,80.9l-2.1-7h-.4l-2.3,7.3L306.54012,127.9392A4.1593,4.1593,0,0,1,302.58871,130.8H290.1Z" transform="translate(0 0.00004)"/>
      <path class="cls-4" d="M431,131.9a38.30728,38.30728,0,0,1-15.7-3.2,35.19718,35.19718,0,0,1-12.2-9.1,43.12853,43.12853,0,0,1-7.9-13.7,53.17962,53.17962,0,0,1-2.8-17.3V87.3a50.46138,50.46138,0,0,1,2.8-17.2,40.35089,40.35089,0,0,1,7.9-13.7,36.48505,36.48505,0,0,1,12.2-9.1,40.35956,40.35956,0,0,1,31.5,0,34.65669,34.65669,0,0,1,12.3,9.1A41.32882,41.32882,0,0,1,467,70.1a50.45992,50.45992,0,0,1,2.8,17.2v1.3a50.63786,50.63786,0,0,1-2.8,17.3,42.0638,42.0638,0,0,1-7.9,13.7,35.89288,35.89288,0,0,1-12.3,9.1A38.783,38.783,0,0,1,431,131.9Zm0-13.3c4.8,0,8.9-1.2,12.1-3.8a22.46641,22.46641,0,0,0,7.2-10.5,46.68192,46.68192,0,0,0,2.4-15.7V87.2a44.02423,44.02423,0,0,0-2.5-15.6,22.62292,22.62292,0,0,0-7.3-10.5,18.9259,18.9259,0,0,0-12-3.8A18.58428,18.58428,0,0,0,419,61a22.00023,22.00023,0,0,0-7.1,10.4A46.48244,46.48244,0,0,0,409.5,87v1.4a46.679,46.679,0,0,0,2.4,15.7,23.05634,23.05634,0,0,0,7.1,10.5,18.11883,18.11883,0,0,0,12,4Z" transform="translate(0 0.00004)"/>
      <path class="cls-4" d="M476.6,130.7V120.4l9.1-1.8V57.4l-9.1-1.8V45.3H517a42.92,42.92,0,0,1,16.9,3A23.545,23.545,0,0,1,544.7,57a24.2354,24.2354,0,0,1,3.8,13.7,24.40178,24.40178,0,0,1-3.8,13.4,26.077,26.077,0,0,1-10.4,9.3,34.5756,34.5756,0,0,1-15.4,3.5H502.8v21.7l9.1,1.8v10.3Zm26.2-46.9h13.9c4.9,0,8.6-1,11-3.1s3.7-5.1,3.7-9.1a12.8957,12.8957,0,0,0-3.6-9.5c-2.4-2.4-6-3.5-10.8-3.5h-14.2V83.8Zm28.7,46.9L517.1,93.8,532.5,90l12.4,28.7,7.3,1.7v10.3H531.5Z" transform="translate(0 0.00004)"/>
      <path class="cls-4" d="M559.1,130.7V120.4l9.1-1.8V57.4l-9.1-1.8V45.3h36.49994V55.6l-10.3,1.8v60.1h24.1l.8-12.5h13.1v25.6H559.1Z" transform="translate(0 0.00004)"/>
      <path class="cls-4" d="M629.5,130.7V120.4l9.2-1.9V57.7l-9.2-2V45.4h37.4a37.91742,37.91742,0,0,1,20.2,5.4,36.693,36.693,0,0,1,13.6,14.8,45.97093,45.97093,0,0,1,4.9,21.7v1.6a47.03932,47.03932,0,0,1-4.8,21.6,36.73237,36.73237,0,0,1-13.5,14.9,37.32229,37.32229,0,0,1-20.1,5.4H629.5Zm26.3-13.1h10.5a19.26476,19.26476,0,0,0,12-3.7,23.10694,23.10694,0,0,0,7.5-10.2,40.26848,40.26848,0,0,0,2.6-14.8V87.2a40.43612,40.43612,0,0,0-2.6-14.9,22.25231,22.25231,0,0,0-7.5-10.1,19.90611,19.90611,0,0,0-12-3.7H655.8Z" transform="translate(0 0.00004)"/>
    </g>
    <g>
      <path class="cls-1" d="M735.5,130.7V120.4l9.1-1.8V57.4l-9.1-1.8V45.3h40.6A38.626,38.626,0,0,1,793,48.7a25.584,25.584,0,0,1,10.9,9.6,26.77879,26.77879,0,0,1,3.8,14.3,27.028,27.028,0,0,1-3.8,14.3A25.37731,25.37731,0,0,1,793,96.4a39.77819,39.77819,0,0,1-16.9,3.4h-14.4v18.9l9.1,1.8v10.3H735.5Zm26.2-44.2h14.4q7.2,0,10.8-3.9a14.09675,14.09675,0,0,0,3.7-9.9,14.39588,14.39588,0,0,0-3.7-10.2c-2.4-2.7-6-4-10.8-4H761.7Z" transform="translate(0 0.00004)"/>
      <path class="cls-1" d="M813.1,130.7V120.4l9.1-1.8V57.4l-9.1-1.8V45.3h66.2v23H866.2l-.8-9.8h-26.1V79.9h28.9V93.2h-28.9v24.4h27.5l.8-10.2h13v23.3Zm24.9-92,11.7-16h18.1l.1.4L851.7,38.7H838Z" transform="translate(0 0.00004)"/>
      <path class="cls-1" d="M889.8,130.7V120.4l9.2-1.9V57.7l-9.2-2V45.4h37.4a37.91685,37.91685,0,0,1,20.2,5.4A36.69236,36.69236,0,0,1,961,65.6a45.97151,45.97151,0,0,1,4.9,21.7v1.6a47.03855,47.03855,0,0,1-4.80005,21.6,36.73121,36.73121,0,0,1-13.5,14.9,37.32211,37.32211,0,0,1-20.1,5.4h-37.7Zm26.29993-13.1h10.5a19.2649,19.2649,0,0,0,12-3.7,23.1062,23.1062,0,0,0,7.5-10.2,40.26972,40.26972,0,0,0,2.6-14.8V87.2a40.43488,40.43488,0,0,0-2.6-14.9,22.25158,22.25158,0,0,0-7.5-10.1,19.90659,19.90659,0,0,0-12-3.7h-10.5Z" transform="translate(0 0.00004)"/>
      <path class="cls-1" d="M973.3,130.7V120.4l9.1-1.8V57.4l-9.1-1.8V45.3h35.30005V55.6l-9.1,1.8v61.2l9.1,1.8v10.3Z" transform="translate(0 0.00004)"/>
      <path class="cls-1" d="M1014.3,130.7V120.4l6.1-.9,27.1-74.2h17.5l27,74.2,6.1.9v10.3h-29.1V120.4l5.9-1.1-3.8-11.7h-30l-3.80005,11.7,5.9,1.1v10.3ZM1045.2,95h21.9l-10-29.2L1056.3,63.2h-.4l-.9,2.8Z" transform="translate(0 0.00004)"/>
      <path class="cls-1" d="M1138.49995,131.9A65.89594,65.89594,0,0,1,1121.3,129.8a48.19838,48.19838,0,0,1-15.19995-7.3V101.9H1119.3l1.80005,12.1a19.91392,19.91392,0,0,0,7.30005,3.6,35.72727,35.72727,0,0,0,10.1,1.4,19.88612,19.88612,0,0,0,7.80005-1.3,11.018,11.018,0,0,0,4.9-3.7,9.5271,9.5271,0,0,0,1.7-5.6,9.97845,9.97845,0,0,0-1.5-5.4,13.18168,13.18168,0,0,0-4.9-4.3A47.7926,47.7926,0,0,0,1137.2,94.9,93.875,93.875,0,0,1,1120.4,88.4c-4.4-2.4-7.8-5.2-10-8.5a21.03255,21.03255,0,0,1-3.3-11.9,20.55667,20.55667,0,0,1,3.8-12.2,26.09919,26.09919,0,0,1,10.6-8.3,40.28121,40.28121,0,0,1,15.7-3.2,54.35905,54.35905,0,0,1,17.4,2.3,38.96115,38.96115,0,0,1,13.1,6.9V72.7h-12.80005L1152.69991,61a24.61617,24.61617,0,0,0-6-2.5,32.0541,32.0541,0,0,0-8.6-1.1,20.12765,20.12765,0,0,0-7.2,1.2,11.53528,11.53528,0,0,0-5,3.6,9.23163,9.23163,0,0,0-1.8,5.7,7.87711,7.87711,0,0,0,1.6,5,14.6601,14.6601,0,0,0,5.3,4A78.12913,78.12913,0,0,0,1141.3,81c9.4,2.6,16.6,6.1,21.4,10.4,4.9,4.3,7.30005,9.9,7.30005,16.9a20.95241,20.95241,0,0,1-3.9,12.6,25.16227,25.16227,0,0,1-11,8.2A46.12756,46.12756,0,0,1,1138.49995,131.9Z" transform="translate(0 0.00004)"/>
    </g>
  </g>
  <g>
    <path class="cls-4" d="M366.23242,222.69371V217.139l4.91944-.95117v-33.167l-4.91944-.95215v-5.58594h18.63037l12.6001,32.21485h.19043l12.1875-32.21485h18.66211v5.58594l-4.95117.95215v33.167l4.95117.95117v5.55469H409.36475V217.139l5.17334-.95117v-8.85547l.15869-20.85156-.19043-.03223L400.7002,222.059H393.686L379.5625,186.73473l-.19043.03125.53955,19.61425v9.80762l5.459.95117v5.55469Z" transform="translate(0 0.00004)"/>
    <path class="cls-4" d="M450.01514,223.35973a11.60241,11.60241,0,0,1-8.125-2.74512A9.60329,9.60329,0,0,1,438.875,213.141a9.46134,9.46134,0,0,1,1.76172-5.68164,11.549,11.549,0,0,1,5.20508-3.83985,22.64789,22.64789,0,0,1,8.48974-1.39648h4.53858V199.684a5.181,5.181,0,0,0-5.77637-5.55469,8.9795,8.9795,0,0,0-2.666.36523,8.10933,8.10933,0,0,0-2.1582,1.03125l-.73,4.53906h-6.665l-.12695-8.91894a28.8394,28.8394,0,0,1,5.83984-2.47559,24.13754,24.13754,0,0,1,7.01416-.95214q6.728,0,10.63233,3.126,3.90381,3.12744,3.90381,8.93457V213.934q0,.69873.01562,1.38085a10.53415,10.53415,0,0,0,.11133,1.31641l3.58642.50781v5.55469H460.36182q-.34936-.8877-.69825-1.9043a11.81829,11.81829,0,0,1-.50781-2.03125,13.02815,13.02815,0,0,1-3.88818,3.34864A10.579,10.579,0,0,1,450.01514,223.35973Zm2.47558-6.85547a8.12437,8.12437,0,0,0,3.68164-.87207,6.81124,6.81124,0,0,0,2.69776-2.30176v-5.42676H454.2998a6.754,6.754,0,0,0-4.61816,1.39649,4.349,4.349,0,0,0-1.5708,3.36425,3.54768,3.54768,0,0,0,1.15869,2.84082A4.77437,4.77437,0,0,0,452.49072,216.50426Z" transform="translate(0 0.00004)"/>
    <path class="cls-4" d="M481.36621,222.69371V217.139l4.4751-.95117V194.891l-4.95117-.95215v-5.58594h14.21875v27.835l4.44336.95117v5.55469Zm4.15772-41.60937V173.182h9.585v7.90235Z" transform="translate(0 0.00004)"/>
    <path class="cls-4" d="M523.85742,223.35973a33.28223,33.28223,0,0,1-7.15674-.7295,32.68813,32.68813,0,0,1-6.36377-2.09472l-.09521-9.71192h6.44287l1.23779,4.95118a11.288,11.288,0,0,0,2.36426.85644,12.27879,12.27879,0,0,0,2.936.31836q3.10986,0,4.37988-1.01562a3.12765,3.12765,0,0,0,1.26953-2.53907,3.19612,3.19612,0,0,0-1.34912-2.52343q-1.34911-1.0957-5.3794-1.91993-6.09375-1.27-8.98193-3.93554a8.87185,8.87185,0,0,1-2.88818-6.82422,9.74227,9.74227,0,0,1,1.44385-5.20508,10.17586,10.17586,0,0,1,4.4121-3.77734,17.5688,17.5688,0,0,1,7.60108-1.42774,31.47089,31.47089,0,0,1,7.09326.7461,21.13914,21.13914,0,0,1,5.41162,1.95117l.09522,9.39453h-6.41114l-.98388-4.50586a6.01844,6.01844,0,0,0-2.01514-.95313,9.9553,9.9553,0,0,0-2.61865-.3164,6.12543,6.12543,0,0,0-3.74512.9834,3.04666,3.04666,0,0,0-1.30127,2.53906,3.13469,3.13469,0,0,0,.46,1.65039,4.24886,4.24886,0,0,0,1.8252,1.42871,19.565,19.565,0,0,0,3.96728,1.26953q6.3794,1.459,9.29932,3.8877a8.36389,8.36389,0,0,1,2.91992,6.80761,9.66665,9.66665,0,0,1-3.47559,7.74414Q530.77686,223.36022,523.85742,223.35973Z" transform="translate(0 0.00004)"/>
    <path class="cls-4" d="M587.03516,223.35973a15.97542,15.97542,0,0,1-8.55323-2.22071,14.69723,14.69723,0,0,1-5.53808-6.1416,19.98554,19.98554,0,0,1-1.936-8.96582v-.95312a19.68946,19.68946,0,0,1,1.96778-8.98145,15.07756,15.07756,0,0,1,5.5542-6.1416,15.62213,15.62213,0,0,1,8.44189-2.2373,20.07206,20.07206,0,0,1,7.98242,1.44433,19.52151,19.52151,0,0,1,5.44336,3.34766L600.334,202.35h-6.98242l-1.23828-6.126a5.73975,5.73975,0,0,0-1.93555-1.2373,6.27338,6.27338,0,0,0-2.38085-.47656,6.74143,6.74143,0,0,0-4.20459,1.26953,7.5411,7.5411,0,0,0-2.4917,3.61816,17.22463,17.22463,0,0,0-.8252,5.68067v.95312a15.55737,15.55737,0,0,0,.92041,5.792,7.28459,7.28459,0,0,0,2.46,3.34864,5.86047,5.86047,0,0,0,3.44287,1.07812,5.75547,5.75547,0,0,0,3.91992-1.28515,6.61922,6.61922,0,0,0,2.01563-3.63379h7.93457l.09473.19043a16.9422,16.9422,0,0,1-2.14258,6.3164,10.56707,10.56707,0,0,1-4.50684,4.09375A16.70262,16.70262,0,0,1,587.03516,223.35973Z" transform="translate(0 0.00004)"/>
    <path class="cls-4" d="M628.09863,223.35973a16.47289,16.47289,0,0,1-8.72851-2.22071,14.55079,14.55079,0,0,1-5.58594-6.17382,20.40827,20.40827,0,0,1-1.93555-9.09278v-.667a20.33164,20.33164,0,0,1,1.93555-9.06055,14.68851,14.68851,0,0,1,5.57031-6.18945,18.05,18.05,0,0,1,17.40821,0,14.75246,14.75246,0,0,1,5.55468,6.17383,20.31612,20.31612,0,0,1,1.93555,9.07617v.667a20.42159,20.42159,0,0,1-1.93555,9.09278,14.62537,14.62537,0,0,1-5.55468,6.17382A16.24505,16.24505,0,0,1,628.09863,223.35973Zm0-7.10938a5.84489,5.84489,0,0,0,3.93555-1.30078,7.64214,7.64214,0,0,0,2.25293-3.63379,18.28569,18.28569,0,0,0,.72949-5.44336v-.667a18.03567,18.03567,0,0,0-.72949-5.37891,7.68986,7.68986,0,0,0-2.26953-3.65039,6.61269,6.61269,0,0,0-7.91895,0,7.52832,7.52832,0,0,0-2.26855,3.65039,18.38231,18.38231,0,0,0-.71387,5.37891v.667a18.79525,18.79525,0,0,0,.71387,5.459,7.324,7.324,0,0,0,2.26855,3.63379A6.06874,6.06874,0,0,0,628.09863,216.25035Z" transform="translate(0 0.00004)"/>
    <path class="cls-4" d="M654.5293,222.69371V217.139l4.44336-.95117V194.891l-4.91993-.95215v-5.58594h13.55274l.41211,4.91895a12.51861,12.51861,0,0,1,4.2373-4.09375,11.29973,11.29973,0,0,1,5.76074-1.46,10.12027,10.12027,0,0,1,7.99805,3.26855q2.88721,3.26953,2.88867,10.25195v14.94922l4.44336.95117v5.55469H675.63477V217.139l3.96777-.95117v-14.918q0-3.45849-1.36426-4.90332a5.336,5.336,0,0,0-4.0625-1.44433,6.90027,6.90027,0,0,0-3.47558.84179,6.98941,6.98941,0,0,0-2.46,2.39649v18.02734l3.74512.95117v5.55469Z" transform="translate(0 0.00004)"/>
    <path class="cls-4" d="M702.35352,222.69371V217.139l4.4746-.95117V179.72008l-4.95117-.95215V173.182h14.1875v19.55078a11.52932,11.52932,0,0,1,4.01465-3.69726,11.10843,11.10843,0,0,1,5.44238-1.31738,10.379,10.379,0,0,1,8.20508,3.44335q3.03077,3.44385,3.03125,10.64844v14.37793l4.44336.95117v5.55469H723.49023V217.139l4-.95117v-14.4414q0-3.71339-1.39648-5.26856a5.22462,5.22462,0,0,0-4.09473-1.55566,7.45582,7.45582,0,0,0-3.41211.77832,6.48757,6.48757,0,0,0-2.52246,2.26855v18.21875l3.99805.95117v5.55469Z" transform="translate(0 0.00004)"/>
    <path class="cls-4" d="M766.80664,223.35973a16.5908,16.5908,0,0,1-8.60059-2.17383,14.90878,14.90878,0,0,1-5.69726-5.98242,18.30675,18.30675,0,0,1-2.01465-8.69629v-1.26953a20.62926,20.62926,0,0,1,1.9043-9.06153,15.06977,15.06977,0,0,1,5.3789-6.2207,14.491,14.491,0,0,1,8.20508-2.2373,15.41408,15.41408,0,0,1,7.83887,1.84082,11.87107,11.87107,0,0,1,4.82422,5.30078,19.34128,19.34128,0,0,1,1.65039,8.3789v5.0459H760.11035l-.06347.19043a10.2915,10.2915,0,0,0,1.12695,4.01465,6.86545,6.86545,0,0,0,2.65039,2.76172,8.12138,8.12138,0,0,0,4.15723.999,16.67513,16.67513,0,0,0,4.74511-.65039,18.23623,18.23623,0,0,0,4.30078-1.91992l2.50684,5.71289a17.83578,17.83578,0,0,1-5.34766,2.84082A22.30831,22.30831,0,0,1,766.80664,223.35973Zm-6.63281-21.20118h11.457v-.82421a10.44277,10.44277,0,0,0-.55469-3.60254,4.682,4.682,0,0,0-1.77734-2.333,5.54208,5.54208,0,0,0-3.15821-.8252,4.98207,4.98207,0,0,0-3.11035.96778,6.37691,6.37691,0,0,0-1.98339,2.65039,13.96513,13.96513,0,0,0-.96876,3.80859Z" transform="translate(0 0.00004)"/>
    <path class="cls-4" d="M807.23535,223.35973a15.976,15.976,0,0,1-8.55371-2.22071,14.694,14.694,0,0,1-5.53809-6.1416,19.98554,19.98554,0,0,1-1.93554-8.96582v-.95312a19.69566,19.69566,0,0,1,1.96679-8.98145,15.08217,15.08217,0,0,1,5.55469-6.1416,15.62273,15.62273,0,0,1,8.44239-2.2373,20.0721,20.0721,0,0,1,7.98242,1.44433,19.52961,19.52961,0,0,1,5.44238,3.34766l-.0625,9.83984h-6.98242l-1.23828-6.126a5.73985,5.73985,0,0,0-1.93555-1.2373,6.27343,6.27343,0,0,0-2.38086-.47656,6.741,6.741,0,0,0-4.20508,1.26953,7.54854,7.54854,0,0,0-2.49219,3.61816,17.23947,17.23947,0,0,0-.82421,5.68067v.95312a15.54819,15.54819,0,0,0,.91992,5.792,7.2879,7.2879,0,0,0,2.46,3.34864,5.86088,5.86088,0,0,0,3.44336,1.07812,5.75549,5.75549,0,0,0,3.91992-1.28515,6.61225,6.61225,0,0,0,2.01465-3.63379H821.169l.09472.19043a16.95946,16.95946,0,0,1-2.14258,6.3164,10.5671,10.5671,0,0,1-4.50683,4.09375A16.70266,16.70266,0,0,1,807.23535,223.35973Z" transform="translate(0 0.00004)"/>
    <path class="cls-4" d="M831.63574,222.69371V217.139l4.47559-.95117V194.891l-4.95117-.95215v-5.58594h14.21875v27.835l4.44336.95117v5.55469Zm4.15723-41.60937V173.182h9.58594v7.90235Z" transform="translate(0 0.00004)"/>
    <path class="cls-4" d="M859.05078,222.69371V217.139l4.47461-.95117V194.891l-4.95117-.95215v-5.58594H872.127l.38086,4.53809a11.53016,11.53016,0,0,1,4.1416-3.82422,11.92045,11.92045,0,0,1,5.76075-1.34863,10.57786,10.57786,0,0,1,5.665,1.46,8.813,8.813,0,0,1,3.53906,4.41211,11.8818,11.8818,0,0,1,4.126-4.31641,11.19239,11.19239,0,0,1,5.9668-1.55566,9.9569,9.9569,0,0,1,8.01367,3.46q2.93555,3.45849,2.93555,10.53711v14.47265l4.47559.95117v5.55469H899.39062V217.139l3.99805-.95117V201.683q0-3.80859-1.25293-5.28418a4.503,4.503,0,0,0-3.63379-1.47656,5.57277,5.57277,0,0,0-3.65039,1.22265,6.85533,6.85533,0,0,0-2.1582,3.22071v16.82226l3.74512.95117v5.55469H879.71289V217.139l3.74414-.95117V201.683q0-3.71339-1.25293-5.23731a4.51186,4.51186,0,0,0-3.69824-1.52343,6.89353,6.89353,0,0,0-3.39551.79394,6.39,6.39,0,0,0-2.34863,2.28516v18.18652l3.999.95117v5.55469Z" transform="translate(0 0.00004)"/>
    <path class="cls-4" d="M942.86523,223.35973a16.59076,16.59076,0,0,1-8.60058-2.17383,14.90873,14.90873,0,0,1-5.69727-5.98242,18.30675,18.30675,0,0,1-2.01465-8.69629v-1.26953a20.62926,20.62926,0,0,1,1.9043-9.06153,15.06972,15.06972,0,0,1,5.37891-6.2207,14.491,14.491,0,0,1,8.20508-2.2373,15.41407,15.41407,0,0,1,7.83886,1.84082,11.871,11.871,0,0,1,4.82422,5.30078,19.34128,19.34128,0,0,1,1.65039,8.3789v5.0459H936.169l-.06348.19043a10.2915,10.2915,0,0,0,1.127,4.01465,6.86551,6.86551,0,0,0,2.65039,2.76172,8.12141,8.12141,0,0,0,4.15723.999,16.67525,16.67525,0,0,0,4.74512-.65039,18.23659,18.23659,0,0,0,4.30078-1.91992l2.50683,5.71289a17.83572,17.83572,0,0,1-5.34765,2.84082A22.30837,22.30837,0,0,1,942.86523,223.35973Zm-6.63281-21.20118h11.457v-.82421a10.443,10.443,0,0,0-.55468-3.60254,4.682,4.682,0,0,0-1.77735-2.333,5.542,5.542,0,0,0-3.1582-.8252,4.982,4.982,0,0,0-3.11035.96778,6.37693,6.37693,0,0,0-1.9834,2.65039,13.96513,13.96513,0,0,0-.96875,3.80859Z" transform="translate(0 0.00004)"/>
    <path class="cls-4" d="M966.79,222.69371V217.139l4.44336-.95117V194.891l-4.91992-.95215v-5.58594h13.55273l.41211,4.91895a12.51861,12.51861,0,0,1,4.2373-4.09375,11.29974,11.29974,0,0,1,5.76075-1.46,10.12026,10.12026,0,0,1,7.998,3.26855q2.88721,3.26953,2.88868,10.25195v14.94922l4.44336.95117v5.55469H987.89551V217.139l3.96777-.95117v-14.918q0-3.45849-1.36426-4.90332a5.336,5.336,0,0,0-4.0625-1.44433,6.90029,6.90029,0,0,0-3.47558.84179,6.98931,6.98931,0,0,0-2.46,2.39649v18.02734l3.74511.95117v5.55469Z" transform="translate(0 0.00004)"/>
    <path class="cls-4" d="M1027.499,223.35973q-4.793,0-7.3789-2.63379-2.58692-2.63379-2.58692-8.34668V194.85973h-4.72949v-6.50684h4.72949v-8.41113h9.23535v8.41113h6.31641v6.50684h-6.31641V212.347a3.98649,3.98649,0,0,0,.8418,2.85645,3.07564,3.07564,0,0,0,2.30078.85742,13.19115,13.19115,0,0,0,1.666-.11133q.873-.11133,1.50781-.23828l.793,6.69726a26.38734,26.38734,0,0,1-3.09375.68165A20.55662,20.55662,0,0,1,1027.499,223.35973Z" transform="translate(0 0.00004)"/>
    <path class="cls-4" d="M1059.42188,223.35973a16.47293,16.47293,0,0,1-8.72852-2.22071,14.55085,14.55085,0,0,1-5.58594-6.17382,20.4084,20.4084,0,0,1-1.93554-9.09278v-.667a20.33178,20.33178,0,0,1,1.93554-9.06055,14.68851,14.68851,0,0,1,5.57031-6.18945,18.05,18.05,0,0,1,17.40821,0,14.75239,14.75239,0,0,1,5.55468,6.17383,20.31612,20.31612,0,0,1,1.93555,9.07617v.667a20.42159,20.42159,0,0,1-1.93555,9.09278,14.62531,14.62531,0,0,1-5.55468,6.17382A16.245,16.245,0,0,1,1059.42188,223.35973Zm0-7.10938a5.84484,5.84484,0,0,0,3.93554-1.30078,7.642,7.642,0,0,0,2.25293-3.63379,18.28569,18.28569,0,0,0,.72949-5.44336v-.667a18.03567,18.03567,0,0,0-.72949-5.37891,7.68978,7.68978,0,0,0-2.26953-3.65039,6.61268,6.61268,0,0,0-7.91894,0,7.52833,7.52833,0,0,0-2.26856,3.65039,18.38231,18.38231,0,0,0-.71387,5.37891v.667a18.79525,18.79525,0,0,0,.71387,5.459,7.324,7.324,0,0,0,2.26856,3.63379A6.0687,6.0687,0,0,0,1059.42188,216.25035Z" transform="translate(0 0.00004)"/>
  </g>
</svg>
